<svg clip-rule="evenodd" fill-rule="evenodd" height="300" image-rendering="optimizeQuality" shape-rendering="geometricPrecision" text-rendering="geometricPrecision" viewBox="0 0 2.54 2.54" width="300" xmlns="http://www.w3.org/2000/svg" version="1.1" xmlns:xlink="http://www.w3.org/1999/xlink" xmlns:svgjs="http://svgjs.dev/svgjs"><g width="100%" height="100%" transform="matrix(1,0,0,1,0,0)"><g id="图层_x0020_1"><circle cx="1.27" cy="1.27" fill="#beff9f" r="1.27" fill-opacity="1" data-original-color="#00ba00ff" stroke="none" stroke-opacity="1"/><path d="m.87344 1.88938-.46448-.49713c-.06359-.06806-.05994-.17574.00812-.23933.06806-.06359.17574-.05993.23933.00812l.35828.38346.56711-.52987c.0051-.00477.01043-.00914.01594-.01316l.26669-.24917c.06806-.06359.17575-.05993.23933.00813.06359.06805.05993.17574-.00812.23933l-.81454.76105-.00087-.00093-.28176.26326-.12503-.13382z" fill="#ffffff" fill-opacity="1" data-original-color="#ffffffff" stroke="none" stroke-opacity="1"/></g></g></svg>