<svg id="Capa_1" enable-background="new 0 0 512.288 512.288" height="300" viewBox="0 0 512.288 512.288" width="300" xmlns="http://www.w3.org/2000/svg" version="1.1" xmlns:xlink="http://www.w3.org/1999/xlink" xmlns:svgjs="http://svgjs.dev/svgjs"><g width="100%" height="100%" transform="matrix(1,0,0,1,0,0)"><g id="XMLID_4_"><path d="m308.698 221.584h-8.956v-104.495h88.809v-64.2h-88.809v-52.889h-65.269v52.889h-10.882c-64.21 0-116.447 52.247-116.447 116.447 0 64.21 52.237 116.447 116.447 116.447h10.882v106.967h-86.669v64.199h86.669v55.34h65.269v-55.34h8.956c64.21 0 116.447-52.237 116.447-116.447v-2.472c-.001-64.21-52.238-116.446-116.447-116.446zm-74.225 0h-10.882c-28.815 0-52.247-23.433-52.247-52.247 0-28.804 23.433-52.247 52.247-52.247h10.882zm126.472 118.918c0 28.815-23.433 52.247-52.247 52.247h-8.956v-106.966h8.956c28.815 0 52.247 23.443 52.247 52.247z" fill="#ff3800" fill-opacity="1" data-original-color="#000000ff" stroke="none" stroke-opacity="1"/><path id="XMLID_105_" d="m447.144 155.848h65v30h-65z" fill="#ff3800" fill-opacity="1" data-original-color="#000000ff" stroke="none" stroke-opacity="1"/><path id="XMLID_103_" d="m436.144 65.848h66v29.999h-66z" transform="matrix(.887 -.461 .461 .887 15.589 225.485)" fill="#ff3800" fill-opacity="1" data-original-color="#000000ff" stroke="none" stroke-opacity="1"/><path id="XMLID_102_" d="m454.144 223.344h29.999v66h-29.999z" transform="matrix(.461 -.887 .887 .461 25.315 554.378)" fill="#ff3800" fill-opacity="1" data-original-color="#000000ff" stroke="none" stroke-opacity="1"/><path id="XMLID_101_" d="m.144 155.848h64v30h-64z" fill="#ff3800" fill-opacity="1" data-original-color="#000000ff" stroke="none" stroke-opacity="1"/><path id="XMLID_84_" d="m28.144 47.848h29.999v66h-29.999z" transform="matrix(.461 -.887 .887 .461 -48.49 81.84)" fill="#ff3800" fill-opacity="1" data-original-color="#000000ff" stroke="none" stroke-opacity="1"/><path id="XMLID_36_" d="m10.144 241.344h66v29.999h-66z" transform="matrix(.887 -.461 .461 .887 -113.365 48.791)" fill="#ff3800" fill-opacity="1" data-original-color="#000000ff" stroke="none" stroke-opacity="1"/></g></g></svg>