<svg fill="none" height="300" viewBox="0 0 16 22" width="300" xmlns="http://www.w3.org/2000/svg" version="1.1" xmlns:xlink="http://www.w3.org/1999/xlink" xmlns:svgjs="http://svgjs.dev/svgjs"><g width="100%" height="100%" transform="matrix(1,0,0,1,0,0)"><path clip-rule="evenodd" d="m14 7.33333c0 1.66881-.8462 3.84837-2.1691 6.13747-1.2322 2.1321-2.72923 4.1099-3.8309 5.4601-1.10167-1.3502-2.59867-3.328-3.83088-5.4601-1.32295-2.2891-2.16912-4.46866-2.16912-6.13747 0-2.78526 2.51892-5.33333 6-5.33333 3.4811 0 6 2.54807 6 5.33333zm2 0c0 4.43627-4.3013 10.25247-6.59604 13.03967-.73918.8978-2.06874.8978-2.80792 0-2.2947-2.7872-6.59604-8.6034-6.59604-13.03967 0-4.05008 3.58172-7.33333 8-7.33333 4.4183 0 8 3.28325 8 7.33333zm-6 .66667c0 1.10457-.89543 2-2 2s-2-.89543-2-2 .89543-2 2-2 2 .89543 2 2zm2 0c0 2.2091-1.7909 4-4 4-2.20914 0-4-1.7909-4-4 0-2.20914 1.79086-4 4-4 2.2091 0 4 1.79086 4 4z" fill="#ff3800" fill-rule="evenodd" fill-opacity="1" data-original-color="#000000ff" stroke="none" stroke-opacity="1"/></g></svg>