<svg id="Layer_1" viewBox="0 0 512 512" xmlns="http://www.w3.org/2000/svg" data-name="Layer 1" width="300" height="300" version="1.1" xmlns:xlink="http://www.w3.org/1999/xlink" xmlns:svgjs="http://svgjs.dev/svgjs"><g width="100%" height="100%" transform="matrix(0.5,0,0,0.5,127.99749755859375,127.99998474121094)"><g fill-rule="evenodd"><path d="m9.991 256c0-135.65 110.354-246 246-246s246.009 110.35 246.009 246-110.355 246-246 246-246-110.348-246-246zm246.009-214.594c-118.345 0-214.6 96.256-214.6 214.594s96.254 214.6 214.6 214.6c118.315 0 214.594-96.288 214.594-214.6s-96.285-214.594-214.594-214.594z" fill="#ffffff" fill-opacity="1" data-original-color="#5eac24ff" stroke="none" stroke-opacity="1"/><path d="m377.166 256-182.332 117.192v-234.379z" fill="#ffffff" fill-opacity="1" data-original-color="#5eac24ff" stroke="none" stroke-opacity="1"/><path d="m196.834 369.529v-227.053l176.634 113.524zm183.9-123.13-178.334-114.599a11.421 11.421 0 0 0 -17.6 9.6v229.2a11.254 11.254 0 0 0 5.945 10.021 11.491 11.491 0 0 0 5.472 1.42 11.307 11.307 0 0 0 6.181-1.84l178.332-114.6a11.424 11.424 0 0 0 0-19.207zm-124.734 214.201c112.8 0 204.563-91.789 204.563-204.6s-91.763-204.592-204.563-204.592-204.616 91.78-204.616 204.592 91.809 204.6 204.616 204.6zm0-421.195c-119.46.001-216.6 97.164-216.6 216.595s97.14 216.6 216.6 216.6c119.407 0 216.594-97.172 216.594-216.6s-97.194-216.594-216.594-216.594zm0 460.595c134.551 0 244-109.458 244-244s-109.454-244-244-244-244 109.457-244 244 109.443 244 244 244zm0-500c-141.162 0-255.992 114.844-255.992 256s114.83 256 255.992 256 255.982-114.839 255.982-256-114.831-256-255.982-256z" fill="#ffffff" fill-opacity="1" data-original-color="#000000ff" stroke="none" stroke-opacity="1"/></g></g></svg>