<svg id="Layer_1" height="300" viewBox="0 0 512 512" width="300" xmlns="http://www.w3.org/2000/svg" data-name="Layer 1" version="1.1" xmlns:xlink="http://www.w3.org/1999/xlink" xmlns:svgjs="http://svgjs.dev/svgjs"><g width="100%" height="100%" transform="matrix(1,0,0,1,0,0)"><path d="m36.165 262.2c7.435 52.8 32.886 104.793 73.6 150.348 37.141 41.556 86.217 76.307 138.19 97.852a21 21 0 0 0 16.084 0c51.973-21.545 101.049-56.3 138.19-97.852 40.72-45.556 66.171-97.548 73.606-150.348a21.012 21.012 0 0 0 -1.417-11.021c-28.948-69.314-37.4-102.56-10.978-177.341a21 21 0 0 0 -25.1-27.316 181.9 181.9 0 0 1 -168.268-41.109 21 21 0 0 0 -28.144 0 181.894 181.894 0 0 1 -168.269 41.108 21 21 0 0 0 -25.1 27.316c26.418 74.781 17.97 108.027-10.978 177.341a21.012 21.012 0 0 0 -1.416 11.022zm62.335-168.749a223.552 223.552 0 0 0 157.5-45.151 223.536 223.536 0 0 0 157.5 45.151c-16.608 64.819-5.583 106.646 19.887 168.424-14.242 83.378-84.373 164.855-177.387 206.269-93.014-41.414-163.145-122.891-177.384-206.269 25.47-61.775 36.495-103.605 19.884-168.424z" fill="#ff3800" fill-opacity="1" data-original-color="#000000ff" stroke="none" stroke-opacity="1"/></g></svg>