<svg clip-rule="evenodd" fill-rule="evenodd" image-rendering="optimizeQuality" shape-rendering="geometricPrecision" text-rendering="geometricPrecision" viewBox="0 0 2.54 2.54" xmlns="http://www.w3.org/2000/svg"><g id="&#x56FE;&#x5C42;_x0020_1"><path d="m.37253 0h1.79494c.20518 0 .37253.16735.37253.37253v1.79494c0 .20518-.16735.37253-.37253.37253h-1.79494c-.20518 0-.37253-.16735-.37253-.37253v-1.79494c0-.20518.16735-.37253.37253-.37253z" fill="#ff4141"/><g id="_411021872" fill="#fff"><path id="_411027656" d="m.6281 1.72969 1.10159-1.10159c.02638-.02637.06941-.02637.09578 0l.08643.08643c.02637.02637.02637.0694 0 .09578l-1.10159 1.10159c-.02638.02637-.06941.02637-.09578 0l-.08643-.08643c-.02637-.02637-.02637-.0694 0-.09578z"/><path id="_493069600" d="m1.72969 1.9119-1.10159-1.10159c-.02637-.02638-.02637-.06941 0-.09578l.08643-.08643c.02637-.02637.0694-.02637.09578 0l1.10159 1.10159c.02637.02638.02637.06941 0 .09578l-.08643.08643c-.02637.02637-.0694.02637-.09578 0z"/></g></g></svg>